<?xml version="1.0" encoding="utf-8"?>
<!-- Generator: Adobe Illustrator 19.0.0, SVG Export Plug-In . SVG Version: 6.00 Build 0)  -->
<svg version="1.1" id="Layer_1" xmlns="http://www.w3.org/2000/svg" xmlns:xlink="http://www.w3.org/1999/xlink" x="0px" y="0px"
	 viewBox="530 -580.1 1656.8 2000" style="enable-background:new 530 -580.1 1656.8 2000;" xml:space="preserve">
<style type="text/css">
	.st0{fill:#F3A750;}
</style>
<g id="Layer_1_1_">
</g>
<g id="Isolation_Mode">
	<g id="C_logosvg" transform="translate(-282.012 -45.095)">
		<g id="XMLID_237_" transform="translate(290.164 195.057)">
			<g id="XMLID_40_" transform="translate(0)">
				<path id="XMLID_44_" class="st0" d="M618,814.3c88.5,50.9,176.5,102.1,264.9,153c139.3,80.3,278.8,160.8,418.4,241.4l97.4,56.4
					c11.4,6.4,25.3,6.4,36.7,0c81.6-47,162.8-94,244.4-141c129.1-74.4,258.1-148.9,387.2-223.5c29.9-17.1,59.8-34.6,89.3-51.7
					c40.6-23.5,3.8-86.7-36.7-63.3c-81.6,47-162.8,94-244.4,141c-129.1,74.4-258.1,148.8-387.2,223.5
					c-29.9,17.1-59.8,34.6-89.3,51.7h36.7c-88.5-50.9-176.5-102.1-264.9-153C1031.2,968.5,891.7,888,752.1,807.4L654.7,751
					C614.1,727.6,577.4,790.8,618,814.3L618,814.3z"/>
			</g>
		</g>
		<g id="XMLID_243_" transform="translate(282.012 45.095)">
			<g id="XMLID_34_" transform="translate(0 0)">
				<path id="XMLID_38_" class="st0" d="M1307.3-573.7c-87.6,50.4-175.2,101.3-262.8,151.7C907.3-343,770.2-263.8,633-184.4
					c-27.8,16.2-57.7,30.8-84.6,48.7C520.2-116.9,530-62.6,530-33.5v457.3c0,118.4-3,237.6,0,356v6c0,47,73.1,47,73.1,0v-889.4
					c-6,10.7-12,20.9-17.9,31.6c85.5-49.2,170.5-98.7,256-147.9c136.2-78.6,272.4-157.2,408.4-235.8c31.6-18.4,63.2-36.3,94.9-54.7
					C1385.1-533.9,1348.3-597.2,1307.3-573.7L1307.3-573.7z"/>
			</g>
		</g>
		<g id="XMLID_245_" transform="translate(329.308 45.834)">
			<g id="XMLID_28_" transform="translate(0)">
				<path id="XMLID_32_" class="st0" d="M1023.1,109.4c115.4-66.7,208.4-121.9,324.1-188.6c16.2-9.4,32.9-18.8,49.2-28.6h-36.7
					c109.4,63.2,218.7,126.3,327.8,189.3c15.4,9,31.2,17.9,46.6,26.9c11.3,6.8,25.5,6.8,36.7,0c101.3-76,202.4-152,303.4-227.8
					c14.5-11.1,29.1-21.8,43.6-32.9c20.9-15.8,25.6-48.3,0-63.2c-178.2-103-370.8-213.1-549-315.8c-24.8-14.5-49.6-28.6-74.7-43.2
					c-40.6-23.5-77.8,39.7-36.7,63.2c178.2,103,370.8,213.1,549,315.8c24.8,14.5,49.6,28.6,74.7,43.2v-63.2
					c-101.3,76-202.4,152-303.4,227.8c-14.5,11.1-29.1,21.8-43.6,32.9h36.8c-113.7-65.4-227.2-130.9-340.6-196.6
					c-16.2-9.4-36.7-26.1-56.8-23.5c-16.7,2.1-34.6,16.2-48.7,24.4c-67.1,38.9-134.2,77.3-201.3,116.2
					c-53,30.8-83.9,50.1-136.9,80.4C945.8,69.7,982.1,132.9,1023.1,109.4z"/>
			</g>
		</g>
		<g id="XMLID_187_" transform="translate(322.767 119.948)">
			<g id="XMLID_22_" transform="translate(0 0)">
				<path id="XMLID_26_" class="st0" d="M1493.9,1062.9c134.6-77.8,269.4-155.5,404.3-233.3c18.8-11.1,38-21.8,56.8-32.9
					c25.6-15,20.9-47.4,0-63.2c-59.4-44.4-118.4-88.9-177.8-133.3c-11.3-6.8-25.5-6.8-36.7,0c-109.4,63.2-218.7,126.3-327.8,189.3
					c-15.4,9-31.2,17.9-46.6,26.9h36.7c-134.2-77.4-268.5-154.8-403-232.5c-18.8-10.7-37.6-21.8-56.4-32.5c6,10.7,12,20.9,17.9,31.6
					V143.4c0-47-73.1-47-73.1,0V583c0,13,6.8,25,17.9,31.6c123.1,71.4,246.3,142.6,369.7,213.7c25.2,14.5,50,29.1,75.2,43.6
					c18.8,10.7,34.6,17.5,56,6c62.4-33.8,123.1-70.9,184.2-106.4c61.5-35.5,123.5-71.4,185-106.8h-36.7
					c59.4,44.4,118.4,88.9,177.8,133.3v-63.2c-134.6,77.8-269.4,155.5-404.3,233.3c-18.8,11.1-38,21.8-56.8,32.9
					C1416.5,1023.2,1453.3,1086.4,1493.9,1062.9L1493.9,1062.9z"/>
			</g>
		</g>
		<g id="XMLID_211_" transform="translate(301.924 62.191)">
			<g id="XMLID_16_" transform="translate(0)">
				<path id="XMLID_20_" class="st0" d="M1794.6-205.3c-108.1-63.2-215.8-126.9-323.9-190.2c-15.4-9-31.2-18.4-46.6-27.3
					c-11.4-6.6-25.4-6.6-36.7,0c-132.4,76.5-265.1,153.1-397.8,229.9C914.8-149.7,839.9-106.4,764.8-63c-13.7,7.7-27.8,15-41,23.5
					C702-25,705.4-1.9,705.4,20.3v553c0,60.7-2.6,121.8,0,182.5c0.9,25.2,16.7,33.8,35,44.4c27.8,16.2,55.6,32,83.3,48.3
					c154.7,89.3,309.3,178.4,463.7,267.4c3.4,2.1,7.3,4.3,10.7,6.4c40.6,23.5,77.8-39.7,36.7-63.2c-167.9-97-336-194-504.2-291
					c-23.5-13.7-47-27.3-70.5-40.6c6,10.7,12,20.9,17.9,31.6V-7.5c-6,10.7-12,20.9-17.9,31.6c74.7-43.2,150-86.7,224.8-129.9
					c118.8-68.8,237.6-137.5,356.4-206c27.3-15.8,55.1-31.6,82.5-47.4h-36.7C1495.2-296,1602.9-232.3,1711-169
					c15.4,9,31.2,18.4,46.6,27.3C1798-118.6,1835.2-181.8,1794.6-205.3L1794.6-205.3z"/>
			</g>
		</g>
		<circle id="XMLID_179_" class="st0" cx="2388" cy="1037.2" r="80.8"/>
		<circle id="XMLID_188_" class="st0" cx="2038.8" cy="-134.6" r="80.8"/>
	</g>
</g>
</svg>
